# AST/ASF file generated using VICON BodyLanguage
# -----------------------------------------------
:version 1.10
:name VICON
:units
  mass 1.0
  length 0.45
  angle deg
:documentation
   .ast/.asf automatically generated from VICON data using
   VICON BodyBuilder and BodyLanguage model FoxedUp or BRILLIANT.MOD
:root
   order TX TY TZ RX RY RZ
   axis XYZ
   position 0 0 0  
   orientation 0 0 0 
:bonedata
  begin
     id 1 
     name lhipjoint
     direction 0.537252 -0.787203 0.302774 
     length 2.29576 
     axis 0 0 0  XYZ
  end
  begin
     id 2 
     name lfemur
     direction 0.34202 -0.939693 0  
     length 7.31114  
     axis 0 0 20  XYZ
    dof rx ry rz
    limits (-160.0 20.0)
           (-70.0 70.0)
           (-60.0 70.0)
  end
  begin
     id 3 
     name ltibia
     direction 0.34202 -0.939693 0   
     length 8.36008   
     axis 0 0 20   XYZ
    dof rx
    limits (-10.0 170.0)
  end
  begin
     id 4 
     name lfoot
     direction 0.0969116 -0.266263 0.959016   
     length 2.16704   
     axis -90 7.62852e-016 20   XYZ
    dof rx rz
    limits (-45.0 90.0)
           (-70.0 20.0)
  end
  begin
     id 5 
     name ltoes
     direction 1.53563e-011 -4.21779e-011 1   
     length 1.08338   
     axis -90 7.62852e-016 20   XYZ
    dof rx
    limits (-90.0 20.0)
  end
  begin
     id 6 
     name rhipjoint
     direction -0.588228 -0.754791 0.290308   
     length 2.39434  
     axis 0 0 0  XYZ 
  end
  begin
     id 7 
     name rfemur
     direction -0.34202 -0.939693 0   
     length 7.45207   
     axis 0 0 -20   XYZ
    dof rx ry rz
    limits (-160.0 20.0)
           (-70.0 70.0)
           (-70.0 60.0)
  end
  begin
     id 8 
     name rtibia
     direction -0.34202 -0.939693 0   
     length 8.03565   
     axis 0 0 -20   XYZ
    dof rx
    limits (-10.0 170.0)
 end
 begin
     id 9 
     name rfoot
     direction -0.107009 -0.294004 0.949795   
     length 2.11509  
     axis -90 -7.62852e-016 -20   XYZ
    dof rx rz
    limits (-45.0 90.0)
           (-20.0 70.0)
  end
  begin
     id 10 
     name rtoes
     direction -1.53533e-011 -4.22004e-011 1   
     length 1.05493   
     axis -90 -7.62852e-016 -20   XYZ
    dof rx
    limits (-90.0 20.0)
  end
  begin
     id 11 
     name lowerback
     direction -0.0115208 0.997969 -0.0626515   
     length 2.03153   
     axis 0 0 0   XYZ
    dof rx ry rz
    limits (-20.0 45.0)
           (-30.0 30.0)
           (-30.0 30.0)
  end
  begin
     id 12 
     name upperback
     direction -0.00423475 0.999974 -0.00583614   
     length 2.03619   
     axis 0 0 0   XYZ
    dof rx ry rz
    limits (-20.0 45.0)
           (-30.0 30.0)
           (-30.0 30.0)
  end
  begin
     id 13 
     name thorax
     direction 0.00289429 0.999728 0.0231573   
     length 2.03921   
     axis 0 0 0   XYZ
    dof rx ry rz
    limits (-20.0 45.0)
           (-30.0 30.0)
           (-30.0 30.0)
  end
  begin
     id 14 
     name lowerneck
     direction 0.0188995 0.987777 0.154721   
     length 1.78836   
     axis 0 0 0   XYZ
    dof rx ry rz
    limits (-20.0 45.0)
           (-30.0 30.0)
           (-30.0 30.0)
  end
  begin
     id 15 
     name upperneck
     direction -0.00612612 0.992995 -0.118   
     length 1.81789   
     axis 0 0 0   XYZ
    dof rx ry rz
    limits (-20.0 45.0)
           (-30.0 30.0)
           (-30.0 30.0)
  end
  begin
     id 16
     name head
     direction -0.00420226 0.998397 -0.0564482  
     length 1.82234  
     axis 0 0 0   XYZ
    dof rx ry rz
    limits (-20.0 45.0)
           (-30.0 30.0)
           (-30.0 30.0)
  end
  begin
     id 17 
     name lclavicle
     direction 0.916488 0.396539 0.0529676  
     length 3.51732  
     axis 0 0 0   XYZ
    dof ry rz
    limits (-20.0 10.0)
           (0.0 20.0)
  end
  begin
     id 18 
     name lhumerus
     direction 1 -4.4896e-011 8.36962e-028   
     length 5.45077   
     axis 180 -30 -90   XYZ
    dof rx ry rz
    limits (-60.0 90.0)
           (-90.0 90.0)
           (-90.0 90.0)
  end
  begin
     id 19
     name lradius
     direction 1 -4.48962e-011 3.01407e-027   
     length 3.05488   
     axis 180 -30 -90   XYZ
    dof rx
    limits (-10.0 170.0)
  end
  begin
     id 20
     name lwrist
     direction 1 -4.49002e-011 4.72961e-027   
     length 1.52744   
     axis -2.72261e-015 90 90   XYZ
    dof ry
    limits (-180.0 0.0)
 end
  begin
     id 21 
     name lhand
     direction 1 -4.4899e-011 9.45681e-027   
     length 0.638818   
     axis -6.0311e-015 90 90   XYZ
    dof rx rz
    limits (-90.0 90.0)
           (-45.0 45.0)
  end
  begin
     id 22 
     name lfingers
     direction 1 -4.48871e-011 1.88632e-026   
     length 0.515032   
     axis -1.20625e-014 90 90   XYZ
    dof rx
    limits (0.0 90.0)
  end
  begin
     id 23
     name lthumb
     direction 0.707107 -6.34964e-011 0.707107   
     length 0.739485   
     axis -90 45 6.32835e-014   XYZ
    dof rx rz
    limits (-45.0 45.0)
           (-45.0 45.0)
  end
  begin
     id 24 
     name rclavicle
     direction -0.949427 0.303202 0.0815894   
     length 3.76167  
     axis 0 0 0   XYZ 
    dof ry rz
    limits (-10.0 20.0)
           (-20.0 0.0)
  end
  begin
     id 25 
     name rhumerus
     direction -1 -4.48971e-011 -6.43969e-018  
     length 4.88702   
     axis 180 30 90   XYZ
    dof rx ry rz
    limits (-90.0 60.0)
           (-90.0 90.0)
           (-90.0 90.0)
  end
  begin
     id 26 
     name rradius
     direction -1 -4.48987e-011 5.46662e-027   
     length 3.22603   
     axis 180 30 90   XYZ
    dof rx
    limits (-10.0 170.0)
  end
  begin
     id 27 
     name rwrist
     direction -1 -4.48956e-011 4.72476e-027   
     length 1.61302   
     axis -2.72261e-015 -90 -90   XYZ
    dof ry
    limits (-180.0 0.0)
  end
  begin
     id 28
     name rhand
     direction -1 -4.4889e-011 9.43571e-027   
     length 0.716293   
     axis -6.0311e-015 -90 -90   XYZ
    dof rx rz
    limits (-90.0 90.0)
           (-45.0 45.0)
  end
  begin
     id 29
     name rfingers
     direction -1 -4.48887e-011 1.88701e-026   
     length 0.577494   
     axis -1.20625e-014 -90 -90   XYZ
    dof rx
    limits (0.0 90.0)
  end
  begin
     id 30
     name rthumb
     direction -0.707107 -6.34825e-011 0.707107   
     length 0.829169   
     axis -90 -45 -6.32835e-014   XYZ
    dof rx rz
    limits (-45.0 45.0)
           (-45.0 45.0)
  end
:hierarchy
  begin
    root lhipjoint rhipjoint lowerback
    lhipjoint lfemur
    lfemur ltibia
    ltibia lfoot
    lfoot ltoes
    rhipjoint rfemur
    rfemur rtibia
    rtibia rfoot
    rfoot rtoes
    lowerback upperback
    upperback thorax
    thorax lowerneck lclavicle rclavicle
    lowerneck upperneck
    upperneck head
    lclavicle lhumerus
    lhumerus lradius
    lradius lwrist
    lwrist lhand lthumb
    lhand lfingers
    rclavicle rhumerus
    rhumerus rradius
    rradius rwrist
    rwrist rhand rthumb
    rhand rfingers
  end

#!OML:ASF F:\VICON\USERDATA\INSTALL\rory3\rory3.ASF
:FULLY-SPECIFIED
:DEGREES
2176
root 0.98812 18.5312 0.761319 173.472 85.7367 161.263
lowerback -7.9261 -0.707208 -2.25038
upperback -2.00997 -0.684742 -0.62997
thorax 2.38378 -0.325653 0.548092
lowerneck -18.2162 0.478103 2.498
upperneck 13.8916 0.70096 -3.84682
head 7.27346 0.109152 -1.58919
rclavicle 8.21229e-015 3.57812e-015
rhumerus -37.7902 8.81141 -94.3414
rradius 32.544
rwrist -8.09194
rhand -22.7832 2.41472
rfingers 7.12502
rthumb 3.65243 -27.5337
lclavicle 8.21229e-015 3.57812e-015
lhumerus -40.4465 -18.9039 93.5052
lradius 37.6675
lwrist 13.989
lhand -13.8989 30.1151
lfingers 7.12502
lthumb 12.2266 59.7377
rfemur -10.1961 -7.79925 18.0575
rtibia 7.01035
rfoot -8.40459 4.80259
rtoes -8.88502
lfemur -14.9734 5.61318 -16.9136
ltibia 13.672
lfoot -10.536 -5.51303
ltoes -25.9458
2177
root 0.985912 18.531 0.760133 174.114 85.7735 161.881
lowerback -7.9459 -0.676831 -2.21309
upperback -2.04827 -0.646126 -0.635935
thorax 2.35375 -0.305251 0.524905
lowerneck -18.1227 0.46535 2.48815
upperneck 13.7385 0.6773 -3.81534
head 7.20648 0.101448 -1.57843
rclavicle 1.61513e-016 2.98177e-015
rhumerus -37.8484 8.53319 -94.4657
rradius 32.5234
rwrist -7.93002
rhand -22.7231 2.40647
rfingers 7.12502
rthumb 3.7105 -27.541
lclavicle 1.61513e-016 2.98177e-015
lhumerus -40.3426 -19.2286 93.551
lradius 37.5377
lwrist 14.2014
lhand -13.6089 29.4014
lfingers 7.12502
lthumb 12.5062 59.0072
rfemur -10.2062 -7.76628 18.1223
rtibia 6.95128
rfoot -8.38924 4.74785
rtoes -9.40061
lfemur -15.0032 5.68701 -16.8623
ltibia 13.6881
lfoot -10.508 -5.62153
ltoes -25.7369
2178
root 0.983384 18.5322 0.760054 174.345 85.7711 162.08
lowerback -7.97996 -0.681827 -2.27558
upperback -2.05987 -0.647068 -0.613047
thorax 2.36162 -0.305756 0.583237
lowerneck -18.1558 0.457218 2.43981
upperneck 13.6537 0.66105 -3.73724
head 7.18327 0.0980788 -1.54623
rclavicle -1.28962e-014 -1.5704e-014
rhumerus -37.7999 8.32663 -94.5562
rradius 32.4033
rwrist -7.91555
rhand -22.6582 2.45379
rfingers 7.12502
rthumb 3.77315 -27.4926
lclavicle -1.28962e-014 -1.5704e-014
lhumerus -40.2744 -19.6063 93.6203
lradius 37.5874
lwrist 14.6659
lhand -13.301 28.9922
lfingers 7.12502
lthumb 12.8031 58.5796
rfemur -10.2307 -7.76946 18.1497
rtibia 6.90609
rfoot -8.3331 4.72271
rtoes -9.82226
lfemur -15.0697 5.69999 -16.849
ltibia 13.7083
lfoot -10.4983 -5.60912
ltoes -25.8098
2179
root 0.982634 18.5335 0.759413 174.758 85.8094 162.427
lowerback -8.04428 -0.687014 -2.32289
upperback -2.09246 -0.648305 -0.586706
thorax 2.36449 -0.305847 0.636434
lowerneck -18.1941 0.467824 2.37701
upperneck 13.6031 0.664673 -3.60157
head 7.17255 0.108711 -1.4908
rclavicle -4.72114e-016 -9.54166e-015
rhumerus -37.8078 8.14498 -94.698
rradius 32.3568
rwrist -8.02055
rhand -22.6436 2.75972
rfingers 7.12502
rthumb 3.78727 -27.1864
lclavicle -4.72114e-016 -9.54166e-015
lhumerus -40.2476 -20.0077 93.7687
lradius 37.5533
lwrist 15.6018
lhand -13.0514 28.7806
lfingers 7.12502
lthumb 13.0437 58.3528
rfemur -10.2465 -7.73707 18.1851
rtibia 6.77223
rfoot -8.2097 4.70882
rtoes -9.4027
lfemur -15.1861 5.82656 -16.8357
ltibia 13.7743
lfoot -10.53 -5.70033
ltoes -25.915
2180
root 0.982184 18.533 0.75739 174.872 85.8219 162.501
lowerback -8.09499 -0.683308 -2.35023
upperback -2.11314 -0.639301 -0.578081
thorax 2.37139 -0.300995 0.661237
lowerneck -18.3001 0.463787 2.30193
upperneck 13.6537 0.657868 -3.48958
head 7.20613 0.110746 -1.44325
rclavicle -1.08586e-014 9.74045e-015
rhumerus -37.8068 7.86493 -94.8023
rradius 32.2709
rwrist -7.96093
rhand -22.7205 3.01336
rfingers 7.12502
rthumb 3.71298 -26.934
lclavicle -1.08586e-014 9.74045e-015
lhumerus -40.313 -20.7536 94.1961
lradius 37.5539
lwrist 17.3255
lhand -13.4699 28.4529
lfingers 7.12502
lthumb 12.6402 58.0504
rfemur -10.1974 -7.73023 18.1828
rtibia 6.59639
rfoot -8.13322 4.69396
rtoes -9.28671
lfemur -15.2484 5.97251 -16.8621
ltibia 13.8329
lfoot -10.558 -5.81183
ltoes -25.9716
2181
root 0.981014 18.5333 0.755532 175.862 85.8631 163.469
lowerback -8.11946 -0.673233 -2.29727
upperback -2.12787 -0.630346 -0.54962
thorax 2.36926 -0.296127 0.66164
lowerneck -18.3716 0.502746 2.25847
upperneck 13.6605 0.702718 -3.38981
head 7.22126 0.138507 -1.39853
rclavicle 1.71328e-014 -3.97569e-016
rhumerus -37.7628 7.5889 -94.8843
rradius 32.1548
rwrist -7.58744
rhand -23.0851 3.26864
rfingers 7.12502
rthumb 3.36088 -26.6846
lclavicle 1.71328e-014 -3.97569e-016
lhumerus -40.2674 -21.157 94.4101
lradius 37.5105
lwrist 18.1267
lhand -13.9069 27.884
lfingers 7.12502
lthumb 12.2188 57.5071
rfemur -10.1148 -7.697 18.258
rtibia 6.39364
rfoot -8.06266 4.6661
rtoes -9.42217
lfemur -15.2992 6.10177 -16.8016
ltibia 13.8908
lfoot -10.6277 -5.8734
ltoes -26.2133
2182
root 0.980284 18.5342 0.752469 176.28 85.9181 163.867
lowerback -8.13487 -0.66148 -2.2423
upperback -2.15528 -0.618591 -0.54717
thorax 2.34863 -0.289379 0.634518
lowerneck -18.3492 0.550112 2.22647
upperneck 13.5902 0.754465 -3.28372
head 7.19543 0.171793 -1.35208
rclavicle -2.98177e-016 -4.37326e-015
rhumerus -37.7142 7.17483 -94.8963
rradius 32.0582
rwrist -6.59837
rhand -23.6247 3.21351
rfingers 7.12502
rthumb 2.83978 -26.7473
lclavicle -2.98177e-016 -4.37326e-015
lhumerus -40.1661 -21.2761 94.4071
lradius 37.4656
lwrist 18.2337
lhand -14.0064 27.2563
lfingers 7.12502
lthumb 12.1229 56.8851
rfemur -10.044 -7.64751 18.2847
rtibia 6.21036
rfoot -7.99512 4.65235
rtoes -9.65377
lfemur -15.3578 6.14626 -16.773
ltibia 13.9424
lfoot -10.5528 -5.8832
ltoes -25.9319
2183
root 0.979429 18.5353 0.750144 176.742 85.928 164.297
lowerback -8.15135 -0.684911 -2.20819
upperback -2.18772 -0.65125 -0.557931
thorax 2.32469 -0.30463 0.601028
lowerneck -18.3486 0.621204 2.31393
upperneck 13.5423 0.816571 -3.23031
head 7.18148 0.211106 -1.34146
rclavicle -5.45415e-015 7.35503e-015
rhumerus -37.5991 6.66795 -94.9169
rradius 31.9173
rwrist -5.34774
rhand -23.4105 2.7756
rfingers 7.12502
rthumb 3.0467 -27.1824
lclavicle -5.45415e-015 7.35503e-015
lhumerus -40.1248 -21.3438 94.3337
lradius 37.5536
lwrist 18.273
lhand -14.0058 26.9554
lfingers 7.12502
lthumb 12.1235 56.5841
rfemur -9.97131 -7.64225 18.3169
rtibia 6.00638
rfoot -7.92313 4.63046
rtoes -9.83959
lfemur -15.4336 6.1856 -16.7552
ltibia 13.9919
lfoot -10.2605 -5.93897
ltoes -25.2528
2184
root 0.977853 18.5349 0.747103 176.804 85.9371 164.312
lowerback -8.18862 -0.714456 -2.18379
upperback -2.1977 -0.68992 -0.591738
thorax 2.3354 -0.323502 0.54825
lowerneck -18.3754 0.674565 2.42446
upperneck 13.4498 0.849949 -3.19483
head 7.15691 0.235906 -1.34357
rclavicle 1.78409e-014 5.1684e-015
rhumerus -37.4714 6.19487 -94.9639
rradius 31.8338
rwrist -4.12082
rhand -22.6945 2.19704
rfingers 7.12502
rthumb 3.73812 -27.7499
lclavicle 1.78409e-014 5.1684e-015
lhumerus -39.9315 -21.1905 94.0278
lradius 37.6325
lwrist 17.5386
lhand -13.3471 26.909
lfingers 7.12502
lthumb 12.7586 56.4992
rfemur -9.95041 -7.63924 18.3053
rtibia 5.86621
rfoot -7.82743 4.62175
rtoes -9.96068
lfemur -15.4917 6.22906 -16.7722
ltibia 14.0115
lfoot -10.1109 -5.98358
ltoes -24.6649
2185
root 0.976317 18.5343 0.745016 176.924 85.9731 164.435
lowerback -8.17571 -0.747602 -2.17825
upperback -2.16637 -0.735221 -0.594619
thorax 2.36166 -0.346916 0.53749
lowerneck -18.5152 0.735562 2.51479
upperneck 13.4037 0.905102 -3.20049
head 7.1674 0.265165 -1.35385
rclavicle 1.3008e-014 9.54166e-015
rhumerus -37.3723 5.98262 -95.1427
rradius 31.7841
rwrist -3.55338
rhand -22.8223 1.84276
rfingers 7.12502
rthumb 3.61471 -28.1063
lclavicle 1.3008e-014 9.54166e-015
lhumerus -39.5779 -20.8176 93.5618
lradius 37.6456
lwrist 16.1624
lhand -12.4248 26.8274
lfingers 7.12502
lthumb 13.6476 56.36
rfemur -9.93517 -7.60425 18.314
rtibia 5.8478
rfoot -7.80052 4.61846
rtoes -9.8468
lfemur -15.4879 6.26082 -16.7593
ltibia 14.0064
lfoot -10.2651 -5.99282
ltoes -25.0725
2186
root 0.974189 18.534 0.742319 176.518 86.0415 164.069
lowerback -8.11758 -0.755517 -2.18126
upperback -2.1465 -0.747258 -0.611045
thorax 2.35008 -0.353329 0.521509
lowerneck -18.648 0.79192 2.55127
upperneck 13.4451 0.959373 -3.14366
head 7.2048 0.297102 -1.33531
rclavicle 4.16205e-015 5.36719e-015
rhumerus -37.3653 5.87778 -95.4443
rradius 31.7064
rwrist -3.68033
rhand -23.0951 1.84986
rfingers 7.12502
rthumb 3.3513 -28.1035
lclavicle 4.16205e-015 5.36719e-015
lhumerus -39.361 -20.5863 93.2812
lradius 37.7063
lwrist 15.4945
lhand -12.0121 26.8088
lfingers 7.12502
lthumb 14.0454 56.3142
rfemur -9.88741 -7.535 18.2799
rtibia 5.81699
rfoot -7.76149 4.58975
rtoes -9.62028
lfemur -15.4486 6.31919 -16.7795
ltibia 14.0163
lfoot -10.4094 -6.00098
ltoes -25.3229
2187
root 0.972094 18.5327 0.739184 175.546 86.0749 163.13
lowerback -8.07126 -0.76121 -2.22778
upperback -2.15191 -0.751885 -0.630017
thorax 2.31924 -0.355459 0.528142
lowerneck -18.7102 0.798981 2.54494
upperneck 13.503 0.961023 -3.09069
head 7.23398 0.301949 -1.31704
rclavicle 2.88238e-015 1.70955e-014
rhumerus -37.2639 5.33683 -95.3306
rradius 31.5573
rwrist -2.19116
rhand -20.8257 1.33185
rfingers 7.12502
rthumb 5.54262 -28.5757
lclavicle 2.88238e-015 1.70955e-014
lhumerus -39.4104 -20.7966 93.4174
lradius 37.8599
lwrist 16.3169
lhand -12.333 26.892
lfingers 7.12502
lthumb 13.7361 56.4186
rfemur -9.81076 -7.50144 18.1895
rtibia 5.72476
rfoot -7.70611 4.55245
rtoes -9.42362
lfemur -15.4266 6.40081 -16.863
ltibia 14.0196
lfoot -10.3949 -6.04446
ltoes -25.4182
